<svg xmlns="http://www.w3.org/2000/svg" xmlns:xlink="http://www.w3.org/1999/xlink" width="500" zoomAndPan="magnify" viewBox="0 0 375 374.999991" height="500" preserveAspectRatio="xMidYMid meet" version="1.0"><defs><g/><clipPath id="6082bca6d5"><path d="M 89.476562 258.09375 L 114.574219 258.09375 L 114.574219 283.195312 L 89.476562 283.195312 Z M 89.476562 258.09375 " clip-rule="nonzero"/></clipPath><clipPath id="897591707c"><path d="M 102.023438 258.09375 C 95.09375 258.09375 89.476562 263.714844 89.476562 270.644531 C 89.476562 277.574219 95.09375 283.195312 102.023438 283.195312 C 108.957031 283.195312 114.574219 277.574219 114.574219 270.644531 C 114.574219 263.714844 108.957031 258.09375 102.023438 258.09375 Z M 102.023438 258.09375 " clip-rule="nonzero"/></clipPath></defs><path stroke-linecap="butt" transform="matrix(0.75, -0.000000000000000093, 0.000000000000000093, 0.75, 97.974101, 12.492284)" fill="none" stroke-linejoin="miter" d="M -0.00192669 4.999872 L 258.289757 4.999872 " stroke="#ffffff" stroke-width="10" stroke-opacity="1" stroke-miterlimit="4"/><path stroke-linecap="butt" transform="matrix(0, -0.75, 0.75, 0, 283.595962, 274.978254)" fill="none" stroke-linejoin="miter" d="M 0.00225526 5.002259 L 342.356444 5.002259 " stroke="#ffffff" stroke-width="10" stroke-opacity="1" stroke-miterlimit="4"/><path stroke-linecap="butt" transform="matrix(0.75, 0, 0, 0.75, 97.974101, 266.894044)" fill="none" stroke-linejoin="miter" d="M -0.00192669 5.00065 L 258.289757 5.00065 " stroke="#ffffff" stroke-width="10" stroke-opacity="1" stroke-miterlimit="4"/><g fill="#ffffff" fill-opacity="1"><g transform="translate(69.278318, 193.916221)"><g><path d="M 18.46875 0 L 18.46875 -161.53125 L 29.3125 -161.53125 L 29.3125 -10.15625 L 133.15625 -10.15625 L 133.15625 0 Z M 18.46875 0 "/></g></g></g><g clip-path="url(#6082bca6d5)"><g clip-path="url(#897591707c)"><path fill="#ffffff" d="M 89.476562 258.09375 L 114.574219 258.09375 L 114.574219 283.195312 L 89.476562 283.195312 Z M 89.476562 258.09375 " fill-opacity="1" fill-rule="nonzero"/></g></g><g fill="#ffffff" fill-opacity="1"><g transform="translate(169.341564, 231.469462)"><g><path d="M 57.234375 2.765625 C 47.535156 2.765625 38.492188 1.226562 30.109375 -1.84375 C 21.722656 -4.925781 14.457031 -8.695312 8.3125 -13.15625 L 12.234375 -21.234375 C 17.617188 -16.921875 24.15625 -13.265625 31.84375 -10.265625 C 39.539062 -7.265625 47.847656 -5.765625 56.765625 -5.765625 C 66.609375 -5.765625 74.375 -7.957031 80.0625 -12.34375 C 85.757812 -16.726562 88.609375 -22.382812 88.609375 -29.3125 C 88.609375 -36.539062 86.222656 -42.5 81.453125 -47.1875 C 76.691406 -51.882812 67.539062 -55.617188 54 -58.390625 C 39.226562 -61.460938 28.765625 -66.035156 22.609375 -72.109375 C 16.460938 -78.191406 13.390625 -85.691406 13.390625 -94.609375 C 13.390625 -100.304688 15.195312 -105.5 18.8125 -110.1875 C 22.425781 -114.882812 27.460938 -118.65625 33.921875 -121.5 C 40.378906 -124.34375 47.914062 -125.765625 56.53125 -125.765625 C 63.769531 -125.765625 70.195312 -125.148438 75.8125 -123.921875 C 81.425781 -122.691406 86.691406 -121.15625 91.609375 -119.3125 L 91.609375 -110.078125 C 86.992188 -112.078125 81.800781 -113.769531 76.03125 -115.15625 C 70.269531 -116.539062 63.695312 -117.234375 56.3125 -117.234375 C 46.457031 -117.234375 38.492188 -115 32.421875 -110.53125 C 26.347656 -106.070312 23.3125 -100.765625 23.3125 -94.609375 C 23.3125 -90.460938 24.269531 -86.65625 26.1875 -83.1875 C 28.113281 -79.726562 31.535156 -76.648438 36.453125 -73.953125 C 41.378906 -71.265625 48.457031 -68.921875 57.6875 -66.921875 C 72.769531 -63.691406 83.347656 -59.035156 89.421875 -52.953125 C 95.492188 -46.878906 98.53125 -39.070312 98.53125 -29.53125 C 98.53125 -20.300781 94.800781 -12.609375 87.34375 -6.453125 C 79.882812 -0.304688 69.847656 2.765625 57.234375 2.765625 Z M 57.234375 2.765625 "/></g></g></g><g fill="#ffffff" fill-opacity="1"><g transform="translate(72.471952, 362.50745)"><g><path d="M 10.09375 -37.546875 L 10.09375 -3.640625 L 28.171875 -3.640625 L 28.171875 0 L 5.671875 0 L 5.671875 -37.546875 Z M 10.09375 -37.546875 "/></g></g></g><g fill="#ffffff" fill-opacity="1"><g transform="translate(102.227755, 362.50745)"><g><path d="M 20.59375 0.546875 C 17.34375 0.546875 14.445312 -0.15625 11.90625 -1.5625 C 9.375 -2.96875 7.378906 -5.113281 5.921875 -8 C 4.472656 -10.882812 3.75 -14.472656 3.75 -18.765625 C 3.75 -23.066406 4.472656 -26.660156 5.921875 -29.546875 C 7.378906 -32.429688 9.375 -34.570312 11.90625 -35.96875 C 14.445312 -37.375 17.34375 -38.078125 20.59375 -38.078125 C 23.84375 -38.078125 26.734375 -37.375 29.265625 -35.96875 C 31.804688 -34.570312 33.800781 -32.429688 35.25 -29.546875 C 36.707031 -26.660156 37.4375 -23.066406 37.4375 -18.765625 C 37.4375 -14.472656 36.707031 -10.882812 35.25 -8 C 33.800781 -5.113281 31.804688 -2.96875 29.265625 -1.5625 C 26.734375 -0.15625 23.84375 0.546875 20.59375 0.546875 Z M 20.59375 -3.546875 C 24.5 -3.546875 27.492188 -4.765625 29.578125 -7.203125 C 31.671875 -9.640625 32.71875 -13.492188 32.71875 -18.765625 C 32.71875 -24.046875 31.671875 -27.90625 29.578125 -30.34375 C 27.492188 -32.78125 24.5 -34 20.59375 -34 C 12.507812 -34 8.46875 -28.921875 8.46875 -18.765625 C 8.46875 -8.617188 12.507812 -3.546875 20.59375 -3.546875 Z M 20.59375 -3.546875 "/></g></g></g><g fill="#ffffff" fill-opacity="1"><g transform="translate(143.40835, 362.50745)"><g><path d="M 20.59375 0.546875 C 17.34375 0.546875 14.445312 -0.15625 11.90625 -1.5625 C 9.375 -2.96875 7.378906 -5.113281 5.921875 -8 C 4.472656 -10.882812 3.75 -14.472656 3.75 -18.765625 C 3.75 -23.066406 4.472656 -26.660156 5.921875 -29.546875 C 7.378906 -32.429688 9.375 -34.570312 11.90625 -35.96875 C 14.445312 -37.375 17.34375 -38.078125 20.59375 -38.078125 C 23.84375 -38.078125 26.734375 -37.375 29.265625 -35.96875 C 31.804688 -34.570312 33.800781 -32.429688 35.25 -29.546875 C 36.707031 -26.660156 37.4375 -23.066406 37.4375 -18.765625 C 37.4375 -14.472656 36.707031 -10.882812 35.25 -8 C 33.800781 -5.113281 31.804688 -2.96875 29.265625 -1.5625 C 26.734375 -0.15625 23.84375 0.546875 20.59375 0.546875 Z M 20.59375 -3.546875 C 24.5 -3.546875 27.492188 -4.765625 29.578125 -7.203125 C 31.671875 -9.640625 32.71875 -13.492188 32.71875 -18.765625 C 32.71875 -24.046875 31.671875 -27.90625 29.578125 -30.34375 C 27.492188 -32.78125 24.5 -34 20.59375 -34 C 12.507812 -34 8.46875 -28.921875 8.46875 -18.765625 C 8.46875 -8.617188 12.507812 -3.546875 20.59375 -3.546875 Z M 20.59375 -3.546875 "/></g></g></g><g fill="#ffffff" fill-opacity="1"><g transform="translate(184.588944, 362.50745)"><g><path d="M 5.671875 0 L 5.671875 -37.546875 L 10.09375 -37.546875 L 10.09375 -21.140625 L 10.890625 -21.140625 L 26.296875 -37.546875 L 31.125 -37.546875 L 31.125 -36.90625 L 14.875 -19.359375 L 32.40625 -0.640625 L 32.40625 0 L 27.34375 0 L 10.890625 -17.28125 L 10.09375 -17.28125 L 10.09375 0 Z M 5.671875 0 "/></g></g></g><g fill="#ffffff" fill-opacity="1"><g transform="translate(217.708001, 362.50745)"><g><path d="M 16.40625 0.546875 C 14.039062 0.546875 11.921875 0.222656 10.046875 -0.421875 C 8.171875 -1.066406 6.609375 -1.910156 5.359375 -2.953125 C 4.117188 -3.992188 3.1875 -5.140625 2.5625 -6.390625 L 4.984375 -9.328125 L 5.625 -9.328125 C 7.945312 -5.398438 11.539062 -3.4375 16.40625 -3.4375 C 19.226562 -3.4375 21.328125 -4.023438 22.703125 -5.203125 C 24.085938 -6.390625 24.78125 -8.035156 24.78125 -10.140625 C 24.78125 -11.378906 24.550781 -12.425781 24.09375 -13.28125 C 23.644531 -14.132812 22.894531 -14.863281 21.84375 -15.46875 C 20.800781 -16.082031 19.382812 -16.609375 17.59375 -17.046875 L 13.203125 -18.125 C 9.929688 -18.914062 7.519531 -20.171875 5.96875 -21.890625 C 4.414062 -23.609375 3.640625 -25.785156 3.640625 -28.421875 C 3.640625 -30.296875 4.117188 -31.960938 5.078125 -33.421875 C 6.035156 -34.890625 7.4375 -36.03125 9.28125 -36.84375 C 11.132812 -37.664062 13.347656 -38.078125 15.921875 -38.078125 C 18.742188 -38.078125 21.125 -37.679688 23.0625 -36.890625 C 25.007812 -36.097656 26.566406 -34.90625 27.734375 -33.3125 L 25.578125 -30.40625 L 24.9375 -30.40625 C 23.851562 -31.726562 22.578125 -32.695312 21.109375 -33.3125 C 19.640625 -33.925781 17.910156 -34.234375 15.921875 -34.234375 C 13.316406 -34.234375 11.347656 -33.726562 10.015625 -32.71875 C 8.691406 -31.707031 8.03125 -30.3125 8.03125 -28.53125 C 8.03125 -26.832031 8.519531 -25.484375 9.5 -24.484375 C 10.476562 -23.484375 12.125 -22.707031 14.4375 -22.15625 L 18.921875 -21.078125 C 22.566406 -20.222656 25.207031 -18.910156 26.84375 -17.140625 C 28.476562 -15.367188 29.296875 -13.101562 29.296875 -10.34375 C 29.296875 -8.226562 28.820312 -6.351562 27.875 -4.71875 C 26.925781 -3.082031 25.484375 -1.796875 23.546875 -0.859375 C 21.609375 0.078125 19.226562 0.546875 16.40625 0.546875 Z M 16.40625 0.546875 "/></g></g></g><g fill="#ffffff" fill-opacity="1"><g transform="translate(249.877132, 362.50745)"><g><path d="M 20.75 0.546875 C 17.457031 0.546875 14.523438 -0.207031 11.953125 -1.71875 C 9.390625 -3.226562 7.378906 -5.429688 5.921875 -8.328125 C 4.472656 -11.234375 3.75 -14.710938 3.75 -18.765625 C 3.75 -22.828125 4.472656 -26.304688 5.921875 -29.203125 C 7.378906 -32.109375 9.390625 -34.3125 11.953125 -35.8125 C 14.523438 -37.320312 17.457031 -38.078125 20.75 -38.078125 C 24.257812 -38.078125 27.175781 -37.414062 29.5 -36.09375 C 31.832031 -34.769531 33.515625 -32.769531 34.546875 -30.09375 L 31.71875 -28.21875 L 31.078125 -28.21875 C 30.046875 -30.363281 28.707031 -31.882812 27.0625 -32.78125 C 25.425781 -33.675781 23.320312 -34.125 20.75 -34.125 C 18.382812 -34.125 16.285156 -33.597656 14.453125 -32.546875 C 12.617188 -31.492188 11.160156 -29.820312 10.078125 -27.53125 C 9.003906 -25.25 8.46875 -22.328125 8.46875 -18.765625 C 8.46875 -15.210938 9.003906 -12.296875 10.078125 -10.015625 C 11.160156 -7.734375 12.617188 -6.066406 14.453125 -5.015625 C 16.285156 -3.960938 18.382812 -3.4375 20.75 -3.4375 C 23.46875 -3.4375 25.691406 -4.046875 27.421875 -5.265625 C 29.148438 -6.492188 30.4375 -8.476562 31.28125 -11.21875 L 31.921875 -11.21875 L 34.875 -9.765625 C 33.976562 -6.441406 32.328125 -3.890625 29.921875 -2.109375 C 27.523438 -0.335938 24.46875 0.546875 20.75 0.546875 Z M 20.75 0.546875 "/></g></g></g><g fill="#ffffff" fill-opacity="1"><g transform="translate(286.693199, 362.50745)"><g><path d="M 10.09375 0 L 5.671875 0 L 5.671875 -37.546875 L 10.09375 -37.546875 Z M 10.09375 0 "/></g></g></g></svg>